<?xml version="1.0" encoding="UTF-8" standalone="no"?>
<!-- Created with Inkscape (http://www.inkscape.org/) -->

<svg
   xmlns:dc="http://purl.org/dc/elements/1.1/"
   xmlns:cc="http://creativecommons.org/ns#"
   xmlns:rdf="http://www.w3.org/1999/02/22-rdf-syntax-ns#"
   xmlns:svg="http://www.w3.org/2000/svg"
   xmlns="http://www.w3.org/2000/svg"
   xmlns:sodipodi="http://sodipodi.sourceforge.net/DTD/sodipodi-0.dtd"
   xmlns:inkscape="http://www.inkscape.org/namespaces/inkscape"
   width="64px"
   height="64px"
   viewBox="0 0 64 64"
   version="1.1"
   id="SVGRoot"
   inkscape:version="0.92.3 (2405546, 2018-03-11)"
   sodipodi:docname="KEWZ-logo-green.svg">
  <sodipodi:namedview
     id="base"
     pagecolor="#ffffff"
     bordercolor="#666666"
     borderopacity="1.0"
     inkscape:pageopacity="0.0"
     inkscape:pageshadow="2"
     inkscape:zoom="5.6568542"
     inkscape:cx="39.710192"
     inkscape:cy="23.232666"
     inkscape:document-units="px"
     inkscape:current-layer="layer1"
     showgrid="false"
     inkscape:window-width="1853"
     inkscape:window-height="1025"
     inkscape:window-x="67"
     inkscape:window-y="27"
     inkscape:window-maximized="1"
     inkscape:grid-bbox="true" />
  <defs
     id="defs1242" />
  <metadata
     id="metadata1245">
    <rdf:RDF>
      <cc:Work
         rdf:about="">
        <dc:format>image/svg+xml</dc:format>
        <dc:type
           rdf:resource="http://purl.org/dc/dcmitype/StillImage" />
        <dc:title></dc:title>
      </cc:Work>
    </rdf:RDF>
  </metadata>
  <g
     id="layer1"
     inkscape:groupmode="layer"
     inkscape:label="Calque 1">
    <path
       style="fill:#5bc757;fill-opacity:1;stroke:none;stroke-width:0.82686907;stroke-linecap:round;stroke-linejoin:round;stroke-miterlimit:4;stroke-dasharray:none;stroke-opacity:1;filter:url(#filter8411)"
       d="M 7.2988281 0 C 3.2555154 0 -3.5527137e-15 3.2555151 0 7.2988281 L 0 56.701172 C 0 60.744485 3.2555154 64 7.2988281 64 L 56.701172 64 C 60.744485 64 64 60.744485 64 56.701172 L 64 7.2988281 C 64 3.2555151 60.744485 -3.5527137e-15 56.701172 0 L 7.2988281 0 z M 9.5878906 7.4023438 A 3.6872044 3.6872044 0 0 1 13.275391 11.089844 A 3.6872044 3.6872044 0 0 1 9.5878906 14.777344 A 3.6872044 3.6872044 0 0 1 5.9023438 11.089844 A 3.6872044 3.6872044 0 0 1 9.5878906 7.4023438 z M 7.0761719 16.787109 L 12.083984 16.787109 L 12.083984 33.152344 L 21.673828 20.042969 L 24.152344 20.042969 L 24.152344 20.041016 L 24.935547 20.041016 L 26.755859 20.041016 L 26.753906 20.042969 L 28.529297 20.044922 L 34.638672 48.378906 L 35.060547 48.378906 L 38.53125 34.769531 L 42.740234 34.773438 L 46.1875 48.380859 L 46.605469 48.380859 L 52.830078 20.105469 L 57.111328 20.117188 L 50.117188 52.646484 L 42.796875 52.646484 L 40.626953 44.080078 L 38.445312 52.646484 L 31.125 52.646484 L 24.740234 22.787109 L 12.775391 39.076172 L 23.628906 57.277344 L 18.623047 57.228516 L 12.083984 45.964844 L 12.083984 57.277344 L 7.0761719 57.277344 L 7.0761719 16.787109 z M 34.875 53.179688 A 2.0484471 2.0484471 0 0 1 36.923828 55.228516 A 2.0484471 2.0484471 0 0 1 34.875 57.277344 A 2.0484471 2.0484471 0 0 1 32.828125 55.228516 A 2.0484471 2.0484471 0 0 1 34.875 53.179688 z M 46.429688 53.179688 A 2.0484471 2.0484471 0 0 1 48.478516 55.228516 A 2.0484471 2.0484471 0 0 1 46.429688 57.277344 A 2.0484471 2.0484471 0 0 1 44.380859 55.228516 A 2.0484471 2.0484471 0 0 1 46.429688 53.179688 z "
       id="rect4018-7-6-9-4-9-3-7" />
  </g>
</svg>
