<?xml version="1.0" encoding="UTF-8" standalone="no"?>
<!-- Created with Inkscape (http://www.inkscape.org/) -->

<svg
   xmlns:dc="http://purl.org/dc/elements/1.1/"
   xmlns:cc="http://creativecommons.org/ns#"
   xmlns:rdf="http://www.w3.org/1999/02/22-rdf-syntax-ns#"
   xmlns:svg="http://www.w3.org/2000/svg"
   xmlns="http://www.w3.org/2000/svg"
   xmlns:sodipodi="http://sodipodi.sourceforge.net/DTD/sodipodi-0.dtd"
   xmlns:inkscape="http://www.inkscape.org/namespaces/inkscape"
   width="64px"
   height="64px"
   viewBox="0 0 64 64"
   version="1.1"
   id="SVGRoot"
   inkscape:version="0.92.3 (2405546, 2018-03-11)"
   sodipodi:docname="simple-logo.svg">
  <sodipodi:namedview
     id="base"
     pagecolor="#ffffff"
     bordercolor="#666666"
     borderopacity="1.0"
     inkscape:pageopacity="0.0"
     inkscape:pageshadow="2"
     inkscape:zoom="5.6568542"
     inkscape:cx="-28.263157"
     inkscape:cy="33.669346"
     inkscape:document-units="px"
     inkscape:current-layer="layer1"
     showgrid="false"
     inkscape:window-width="1853"
     inkscape:window-height="1025"
     inkscape:window-x="67"
     inkscape:window-y="27"
     inkscape:window-maximized="1"
     inkscape:grid-bbox="true" />
  <defs
     id="defs5672" />
  <metadata
     id="metadata5675">
    <rdf:RDF>
      <cc:Work
         rdf:about="">
        <dc:format>image/svg+xml</dc:format>
        <dc:type
           rdf:resource="http://purl.org/dc/dcmitype/StillImage" />
        <dc:title />
      </cc:Work>
    </rdf:RDF>
  </metadata>
  <g
     id="layer1"
     inkscape:groupmode="layer"
     inkscape:label="Calque 1">
    <g
       id="g6250"
       transform="translate(0.49555664,-1.65554)"
       style="stroke:#ffffff;stroke-opacity:1">
      <path
         sodipodi:nodetypes="ssscssscscccscccsccscsccccccccs"
         inkscape:connector-curvature="0"
         id="path826"
         d="m 27.730189,63.971272 c -2.245726,-0.717497 -5.385166,-3.116244 -9.226744,-7.049857 -2.896942,-2.966341 -3.902128,-4.257582 -4.814708,-6.184872 -0.655176,-1.383673 -0.673336,-1.493466 -0.656573,-3.969437 0.01608,-2.374997 0.296153,-4.37071 1.315064,-9.370759 0.102748,-0.504197 0.383456,-2.245936 0.623806,-3.870541 0.748113,-5.056757 0.390404,-7.179093 -1.962062,-11.641186 -2.462462,-4.670747 -2.598538,-4.995286 -2.44272,-5.825861 0.221219,-1.179203 1.56066,-2.389927 2.966451,-2.681392 2.140699,-0.443823 3.291123,0.0065 5.152314,2.0168 2.182257,2.357098 3.644855,4.936838 6.641714,11.714708 l 0.450361,1.018554 8.795481,-8.89016 c 7.967415,-8.053177 8.889997,-8.921026 9.799398,-9.217976 1.441716,-0.4707759 2.513366,-0.4132314 3.74628,0.201157 1.421009,0.708116 2.142423,1.893828 2.141207,3.519241 -0.0016,2.036711 -0.324852,2.471742 -6.529706,8.785657 l -5.705518,5.8058 1.303317,0.322806 c 2.289913,0.567161 3.687901,2.545698 3.473035,4.915297 l -0.106887,1.178827 h 0.657148 c 0.361425,0 1.154405,0.252091 1.762171,0.560212 1.898299,0.962372 2.759618,3.040167 2.163564,5.219262 -0.156034,0.570465 -0.143483,0.582207 0.512165,0.47888 1.731121,-0.272833 3.753188,0.762393 4.369283,2.236914 0.394502,0.944185 0.335564,2.658125 -0.126413,3.675879 -0.673739,1.484248 -10.24409,11.399234 -14.050964,14.556938 -2.844583,2.359495 -3.604232,2.669089 -6.733477,2.744142 -1.861051,0.04466 -2.807628,-0.02245 -3.516984,-0.249033 z"
         style="fill:none;stroke:#ffffff;stroke-width:2.14100003;stroke-miterlimit:4;stroke-dasharray:none;stroke-opacity:1" />
      <path
         inkscape:connector-curvature="0"
         id="path6237"
         d="m 39.5,6 -6.625,6.625"
         style="fill:none;stroke:#ffffff;stroke-width:2.14100003;stroke-linecap:round;stroke-linejoin:miter;stroke-miterlimit:4;stroke-dasharray:none;stroke-opacity:1" />
      <path
         inkscape:connector-curvature="0"
         id="path6239"
         d="M 30.612855,3.0918699 29.637145,11.03313"
         style="fill:none;stroke:#ffffff;stroke-width:2.14100003;stroke-linecap:round;stroke-linejoin:miter;stroke-miterlimit:4;stroke-dasharray:none;stroke-opacity:1" />
      <path
         inkscape:connector-curvature="0"
         id="path6241"
         d="m 21.6875,3.5625 4,7.75"
         style="fill:none;stroke:#ffffff;stroke-width:2.14100003;stroke-linecap:round;stroke-linejoin:miter;stroke-miterlimit:4;stroke-dasharray:none;stroke-opacity:1" />
      <path
         inkscape:connector-curvature="0"
         id="path6243"
         d="m 17.75,10.5 5.5,3.125"
         style="fill:none;stroke:#ffffff;stroke-width:2.14100003;stroke-linecap:round;stroke-linejoin:miter;stroke-miterlimit:4;stroke-dasharray:none;stroke-opacity:1" />
    </g>
  </g>
</svg>
